<?xml version="1.0" encoding="UTF-8"?>
<svg version="1.2" baseProfile="tiny" xmlns="http://www.w3.org/2000/svg" id="Warstwa_1" width="482" height="482" viewBox="0 0 482 482">
  <path d="M241,481.5c-64.24,0-124.64-25.02-170.06-70.44C25.51,365.64.5,305.24.5,241S25.51,116.36,70.94,70.94C116.36,25.51,176.76.5,241,.5s124.64,25.02,170.06,70.44c45.43,45.43,70.44,105.82,70.44,170.06s-25.02,124.64-70.44,170.06c-45.42,45.43-105.82,70.44-170.06,70.44Z"></path>
  <path d="M241,.99c32.4,0,63.83,6.35,93.42,18.86,28.58,12.09,54.25,29.39,76.29,51.44,22.04,22.04,39.35,47.71,51.44,76.29,12.52,29.59,18.86,61.02,18.86,93.42s-6.35,63.83-18.86,93.42c-12.09,28.58-29.39,54.25-51.44,76.29-22.04,22.04-47.71,39.35-76.29,51.44-29.59,12.52-61.02,18.86-93.42,18.86s-63.83-6.35-93.42-18.86c-28.58-12.09-54.25-29.39-76.29-51.44-22.04-22.04-39.35-47.71-51.44-76.29C7.34,304.83.99,273.4.99,241s6.35-63.83,18.86-93.42c12.09-28.58,29.39-54.25,51.44-76.29s47.71-39.35,76.29-51.44C177.17,7.34,208.6.99,241,.99M241,0C107.9,0,0,107.9,0,241s107.9,241,241,241,241-107.9,241-241S374.1,0,241,0h0Z" fill="#fff"></path>
  <polygon points="43.78 194 27.62 194 27.62 262.24 73.43 262.24 73.43 247.2 43.78 247.2 43.78 194" fill="#fff"></polygon>
  <path d="M96.48,259c2.09,1.05,4.47,1.86,7.05,2.42,2.6.54,5.43.82,8.4.82,5.99,0,11.21-1.09,15.51-3.25,4.17-2.09,7.27-5,9.46-8.93,2.22-3.99,3.35-8.88,3.35-14.53v-41.94h-15.86v40.61c0,8.89-4.66,14.2-12.47,14.2s-12.47-5.31-12.47-14.2v-40.61h-15.76v41.94c0,5.64,1.13,10.53,3.35,14.53,2.19,3.93,5.28,6.86,9.42,8.94Z" fill="#fff"></path>
  <polygon points="194.55 228.26 170.97 194 156.97 194 156.97 262.24 172.55 262.24 172.55 246.55 172.33 223.08 189.44 245.37 199.67 245.37 216.79 222.3 216.54 246.58 216.54 262.24 232.12 262.24 232.12 194 218.23 194 194.55 228.26" fill="#fff"></polygon>
  <rect x="249.88" y="193.07" width="143.77" height="15.23" fill="#fff"></rect>
  <rect x="82.79" y="274.07" width="149.34" height="14.86" fill="#fff"></rect>
  <polygon points="266.04 220.69 249.88 220.69 249.88 288.93 295.69 288.93 295.69 273.89 266.04 273.89 266.04 220.69" fill="#fff"></polygon>
  <path d="M347.59,260.9c0,8.89-4.66,14.2-12.47,14.2s-12.47-5.31-12.47-14.2v-40.61h-15.76v41.94c0,5.64,1.13,10.53,3.35,14.53,2.19,3.93,5.28,6.86,9.42,8.94,2.09,1.05,4.47,1.86,7.05,2.42,2.6.54,5.43.82,8.4.82,5.99,0,11.21-1.09,15.51-3.25,4.17-2.09,7.27-5,9.46-8.93,2.22-3.99,3.35-8.88,3.35-14.53v-41.94h-15.86v40.61h0Z" fill="#fff"></path>
  <polygon points="440.49 220.69 416.81 254.95 393.23 220.69 379.23 220.69 379.23 288.93 394.81 288.93 394.81 273.24 394.59 249.77 411.7 272.06 421.93 272.06 439.05 248.99 438.8 273.28 438.8 288.93 454.38 288.93 454.38 220.69 440.49 220.69" fill="#fff"></polygon>
  <title>Title</title>
</svg>
